<svg width="174" height="147" viewBox="0 0 174 147" fill="none" xmlns="http://www.w3.org/2000/svg">
<rect x="1.25018" y="58.5503" width="194.542" height="90.7874" rx="45.3937" transform="rotate(-17.1299 1.25018 58.5503)" stroke="#9B6800" stroke-opacity="0.7" stroke-width="2"/>
<path fill-rule="evenodd" clip-rule="evenodd" d="M147.302 96.2721C145.316 96.3887 144.323 96.447 144.034 95.8379C143.745 95.2287 144.483 94.4259 145.959 92.8201C153.989 84.0855 157.295 71.4379 153.549 59.2814C149.802 47.1249 139.949 38.5329 128.395 35.8343C126.271 35.3382 125.209 35.0902 125.105 34.424C125.001 33.7579 125.855 33.2471 127.562 32.2255C129.894 30.8294 132.431 29.6887 135.145 28.8522C153.353 23.2401 172.664 33.4516 178.276 51.6602C183.888 69.8688 173.676 89.1793 155.468 94.7914C152.754 95.6278 150.015 96.1128 147.302 96.2721Z" fill="#9B6800" fill-opacity="0.61"/>
<circle cx="68.6375" cy="85.803" r="12.6667" transform="rotate(-17.1299 68.6375 85.803)" stroke="#9B6800" stroke-opacity="0.7" stroke-width="2"/>
<path d="M61.5931 62.9473L59.5804 56.4171" stroke="#9B6800" stroke-opacity="0.7" stroke-width="2" stroke-linecap="round"/>
<path d="M77.6945 115.189L75.6819 108.659" stroke="#9B6800" stroke-opacity="0.7" stroke-width="2" stroke-linecap="round"/>
<path d="M79.8177 64.6604L83.0121 58.6197" stroke="#9B6800" stroke-opacity="0.7" stroke-width="2" stroke-linecap="round"/>
<path d="M54.2628 112.986L57.4572 106.946" stroke="#9B6800" stroke-opacity="0.7" stroke-width="2" stroke-linecap="round"/>
<path d="M91.4932 78.7586L98.0234 76.7459" stroke="#9B6800" stroke-opacity="0.7" stroke-width="2" stroke-linecap="round"/>
<path d="M39.2516 94.8601L45.7818 92.8474" stroke="#9B6800" stroke-opacity="0.7" stroke-width="2" stroke-linecap="round"/>
<path d="M89.78 96.9833L95.8208 100.178" stroke="#9B6800" stroke-opacity="0.7" stroke-width="2" stroke-linecap="round"/>
<path d="M41.4542 71.4283L47.4949 74.6227" stroke="#9B6800" stroke-opacity="0.7" stroke-width="2" stroke-linecap="round"/>
</svg>
