<svg width="19" height="22" viewBox="0 0 19 22" fill="none" xmlns="http://www.w3.org/2000/svg">
<path fill-rule="evenodd" clip-rule="evenodd" d="M2.27868 20.0463C1.28448 19.4465 0.787378 19.1466 0.700618 18.7148C0.653253 18.4792 0.692424 18.2341 0.810908 18.025C1.02794 17.6418 1.80258 17.4638 3.35186 17.1079C6.13561 16.4683 8.66666 14.7443 10.2588 12.1055C11.8509 9.46673 12.196 6.4238 11.464 3.66293C11.0566 2.12646 10.8529 1.35823 11.0906 0.98761C11.2204 0.785234 11.4189 0.636321 11.6496 0.568339C12.0719 0.443842 12.569 0.743755 13.5631 1.34358V1.34358C18.7278 4.45969 20.3884 11.1726 17.2723 16.3372C14.1562 21.5018 7.44331 23.1625 2.27868 20.0463V20.0463Z" fill="black" fill-opacity="0.61"/>
</svg>
