<svg width="10" height="12" viewBox="0 0 10 12" fill="none" xmlns="http://www.w3.org/2000/svg">
<path d="M6.875 4.50022C6.875 3.90657 7.66458 3.74921 7.87406 4.30468C8.38079 5.64832 8.75 6.85031 8.75 7.50016C8.75 9.57123 7.07107 11.2502 5 11.2502C2.92893 11.2502 1.25 9.57123 1.25 7.50016C1.25 6.80198 1.67617 5.4665 2.24117 4.00274C2.97307 2.10659 3.33902 1.15852 3.79075 1.10745C3.9353 1.09111 4.09299 1.12049 4.22196 1.18779C4.625 1.39809 4.625 2.43214 4.625 4.50022C4.625 5.12154 5.12868 5.62522 5.75 5.62522C6.37132 5.62522 6.875 5.12154 6.875 4.50022Z" stroke="white"/>
<path d="M4.25 11.25L4.05291 10.7573C3.7112 9.90299 3.85524 8.93095 4.43001 8.21248V8.21248C4.72223 7.84722 5.27777 7.84722 5.56999 8.21248V8.21248C6.14476 8.93095 6.2888 9.90299 5.94709 10.7573L5.75 11.25" stroke="white"/>
</svg>
